<svg id="aac381c6-cd6c-4170-a770-9ab23deead47" data-name="Capa 1" xmlns="http://www.w3.org/2000/svg" viewBox="0 0 60 60"><path d="M52.5,5.07v41c0,1.17-1.17,2.08-2.66,2.08a3.19,3.19,0,0,1-1.61-.42l-4.35-2.59V12.48c0-1.88-1.77-3.35-4-3.35H19V5.07C19,3.91,20.2,3,21.69,3H49.85C51.34,3,52.5,3.91,52.5,5.07Z" style="fill:#00dbc0"/><path d="M39,57a3.94,3.94,0,0,1-2-.52L26,49.93a2.12,2.12,0,0,0-1.05-.24,2.16,2.16,0,0,0-1.06.24l-11,6.55a3.91,3.91,0,0,1-2,.52C9,57,7.5,55.81,7.5,54.29v-41c0-1.52,1.47-2.71,3.34-2.71H39c1.87,0,3.34,1.19,3.34,2.71v41C42.35,55.81,40.88,57,39,57Z" style="fill:#0025db"/></svg>