<svg id="b75d41bb-7bf4-45fb-b3b9-d5c4da3b2f5b" data-name="Capa 1" xmlns="http://www.w3.org/2000/svg" viewBox="0 0 60 60"><path d="M44,26.75a12.49,12.49,0,0,1-6.77-23H9.53c-2.26,0-4,1.35-4,3.06V53.19c0,1.71,1.77,3.06,4,3.06a4.93,4.93,0,0,0,2.4-.59l13.28-7.4a3.17,3.17,0,0,1,2.56,0l13.28,7.4a4.93,4.93,0,0,0,2.4.59c2.27,0,4-1.35,4-3.06V26.24A12.24,12.24,0,0,1,44,26.75Z" style="fill:#0025db"/><path d="M44,24.75a3.39,3.39,0,0,1-3.39-3.39V17.64H36.89a3.39,3.39,0,0,1,0-6.78h3.72V7.14a3.39,3.39,0,0,1,6.78,0v3.72h3.72a3.39,3.39,0,0,1,0,6.78H47.39v3.72A3.39,3.39,0,0,1,44,24.75Z" style="fill:#00db76"/></svg>